<?xml version="1.0" encoding="UTF-8" standalone="no"?>
<!-- Created with Inkscape (http://www.inkscape.org/) -->

<svg
   width="196.70909mm"
   height="17.512941mm"
   viewBox="0 0 196.70909 17.512941"
   version="1.1"
   id="svg5"
   xml:space="preserve"
   inkscape:version="1.2.2 (b0a8486541, 2022-12-01)"
   sodipodi:docname="logo.svg"
   xmlns:inkscape="http://www.inkscape.org/namespaces/inkscape"
   xmlns:sodipodi="http://sodipodi.sourceforge.net/DTD/sodipodi-0.dtd"
   xmlns="http://www.w3.org/2000/svg"
   xmlns:svg="http://www.w3.org/2000/svg"><sodipodi:namedview
     id="namedview7"
     pagecolor="#ffffff"
     bordercolor="#666666"
     borderopacity="1.0"
     inkscape:showpageshadow="2"
     inkscape:pageopacity="0.0"
     inkscape:pagecheckerboard="0"
     inkscape:deskcolor="#d1d1d1"
     inkscape:document-units="mm"
     showgrid="false"
     inkscape:zoom="0.84096521"
     inkscape:cx="246.74029"
     inkscape:cy="168.25904"
     inkscape:window-width="1920"
     inkscape:window-height="1008"
     inkscape:window-x="0"
     inkscape:window-y="0"
     inkscape:window-maximized="1"
     inkscape:current-layer="layer1" /><defs
     id="defs2"><rect
       x="-238.86168"
       y="242.77687"
       width="1209.4226"
       height="249.20448"
       id="rect3188" /><filter
       style="color-interpolation-filters:sRGB"
       inkscape:menu-tooltip="Basic noise fill texture; adjust color in Flood"
       inkscape:label="Colorize Turbulent"
       inkscape:menu="Overlays"
       id="filter842"
       x="0"
       y="0"
       width="1"
       height="1"><feColorMatrix
         type="saturate"
         result="result5"
         values="1"
         id="feColorMatrix818" /><feFlood
         result="result1"
         flood-color="rgb(255,0,0)"
         id="feFlood820" /><feComposite
         result="fbSourceGraphic"
         operator="in"
         in2="SourceGraphic"
         id="feComposite822" /><feTurbulence
         type="fractalNoise"
         baseFrequency="0.035"
         numOctaves="5"
         id="feTurbulence824" /><feColorMatrix
         values="1 0 0 0 0 0 1 0 0 0 0 0 1 0 0 0 0 0 3 -1 "
         result="result0"
         id="feColorMatrix826" /><feFlood
         result="result1"
         flood-color="rgb(0,177,71)"
         flood-opacity="1"
         id="feFlood828" /><feBlend
         result="result2"
         in="result1"
         mode="normal"
         in2="fbSourceGraphic"
         id="feBlend830" /><feComposite
         result="result3"
         operator="out"
         in2="result0"
         id="feComposite832" /><feComposite
         operator="atop"
         in2="fbSourceGraphic"
         id="feComposite834" /><feColorMatrix
         result="result4"
         type="hueRotate"
         values="0"
         id="feColorMatrix836" /><feBlend
         mode="lighten"
         in2="result5"
         id="feBlend838" /><feColorMatrix
         type="hueRotate"
         values="0"
         id="feColorMatrix840" /></filter></defs><g
     inkscape:label="Layer 1"
     inkscape:groupmode="layer"
     id="layer1"
     transform="translate(-7.1181871,-2.7818901)"><g
       aria-label="R     VE COMM     NDER"
       transform="matrix(0.36118793,0,0,0.36118793,92.699742,-74.736803)"
       id="text3186"
       style="font-size:40.78px;line-height:0;font-family:'Microgramma D Extended';-inkscape-font-specification:'Microgramma D Extended';letter-spacing:0px;word-spacing:0px;white-space:pre;shape-inside:url(#rect3188);display:inline;fill:#cccccc"><path
         d="m -236.94467,253.86913 h 8.27834 v -6.89182 h 11.70386 c 3.42552,0 4.03722,0.0816 4.60814,0.73404 0.65248,0.69326 0.8156,1.67198 0.8156,4.73048 v 1.4273 h 8.156 v -2.52836 c 0.16312,-6.28012 -0.57092,-7.50352 -4.77126,-7.99288 1.6312,-0.24468 2.40602,-0.53014 3.18084,-1.14184 1.46808,-1.10106 1.87588,-2.6507 1.87588,-6.68792 0,-4.73048 -0.6117,-6.5248 -2.69148,-7.78898 -1.75354,-1.06028 -1.75354,-1.06028 -11.13294,-1.06028 h -20.02298 z m 8.27834,-13.70208 v -6.68792 h 11.66308 c 3.75176,0.0408 3.8741,0.0408 4.44502,0.28546 0.85638,0.36702 1.18262,1.14184 1.18262,2.97694 0,1.71276 -0.24468,2.52836 -0.89716,2.93616 -0.57092,0.4078 -0.57092,0.4078 -4.73048,0.48936 z"
         id="path844" /><path
         d="m -151.71448,226.66887 13.4574,27.20026 h 12.68258 l 13.29428,-27.20026 h -9.05316 l -9.7872,20.34922 h -1.59042 l -9.90954,-20.34922 z"
         id="path846" /><path
         d="m -110.93446,226.66887 v 27.20026 h 30.258759 v -6.5248 h -22.102759 v -4.32268 h 20.838579 v -5.99466 h -20.838579 v -3.95566 h 21.939639 v -6.40246 z"
         id="path848" /><path
         d="m -42.057061,243.38867 c -0.04078,4.03722 -0.16312,4.078 -9.25706,4.078 -8.72692,0 -8.84926,-0.0816 -8.84926,-7.05494 0,-4.11878 0.32624,-5.7092 1.30496,-6.5248 0.8156,-0.65248 2.32446,-0.8156 7.50352,-0.8156 5.21984,0 7.62586,0.24468 8.23756,0.77482 0.48936,0.4078 0.57092,0.77482 0.65248,2.56914 h 8.27834 v -1.34574 c 0,-4.36346 -0.8156,-6.36168 -3.14006,-7.5443 -1.87588,-0.97872 -4.40424,-1.26418 -11.66308,-1.26418 -14.23222,0 -17.209159,0.69326 -18.677239,4.36346 -0.6117,1.50886 -0.77482,3.75176 -0.77482,9.82798 0,3.4663 0.08156,5.7092 0.2039,6.9326 0.32624,2.77304 1.14184,4.2819 2.93616,5.3014 2.202119,1.26418 5.627639,1.59042 16.271219,1.59042 6.03544,0 9.01238,-0.24468 11.2145,-0.93794 3.01772,-0.97872 4.15956,-2.97694 4.15956,-7.38118 0,-0.4078 -0.04078,-1.0195 -0.08156,-2.56914 z"
         id="path850" /><path
         d="m -12.57309,226.26107 c -11.37762,0 -13.90598,0.28546 -15.985759,1.87588 -2.07978,1.59042 -2.69148,4.36346 -2.69148,11.94854 0,7.99288 0.57092,10.68436 2.69148,12.31556 2.079779,1.59042 4.608139,1.87588 16.067319,1.87588 11.2552797,0 13.8244196,-0.28546 15.9041996,-1.87588 2.0797799,-1.59042 2.6914799,-4.32268 2.6914799,-12.15244 0,-7.78898 -0.6117,-10.52124 -2.6914799,-12.11166 -2.07978,-1.59042 -4.6081399,-1.87588 -15.9857596,-1.87588 z m 0,7.05494 c 7.5850798,0 8.4822398,0.12234 9.4201798,1.2234 0.73404,0.89716 0.97872,2.4468 0.97872,6.48402 0,3.30318 -0.28546,4.4858 -1.2234,5.21984 -1.10106,0.8156 -2.4467999,0.97872 -9.0939398,0.97872 -6.85104,0 -8.156,-0.12234 -9.25706,-0.97872 -0.97872,-0.77482 -1.2234,-1.87588 -1.2234,-5.26062 0,-3.4663 0.16312,-5.01594 0.65248,-5.95388 0.8156,-1.59042 1.59042,-1.71276 9.74642,-1.71276 z"
         id="path852" /><path
         d="m 9.3665653,226.66887 v 27.20026 h 8.1559997 l -0.2039,-20.34922 h 1.46808 l 10.23578,20.34922 h 6.89182 l 10.235779,-20.34922 h 1.38652 l -0.2039,20.34922 h 8.156 v -27.20026 h -14.92548 l -8.115219,17.65774 -8.07444,-17.65774 z"
         id="path854" /><path
         d="m 59.281314,226.66887 v 27.20026 h 8.156 l -0.2039,-20.34922 h 1.46808 l 10.23578,20.34922 h 6.89182 l 10.235779,-20.34922 h 1.38652 l -0.2039,20.34922 h 8.155997 V 226.66887 H 90.478014 l -8.11522,17.65774 -8.07444,-17.65774 z"
         id="path856" /><path
         d="m 160.17108,226.66887 v 27.20026 h 8.44146 l -0.2039,-20.30844 h 0.89716 l 14.31378,20.30844 h 14.39534 v -27.20026 h -8.44146 l 0.2039,20.26766 h -0.85638 l -14.23222,-20.26766 z"
         id="path858" /><path
         d="m 201.80747,253.86913 h 19.61518 c 9.1755,0 11.58152,-0.4078 13.6613,-2.28368 1.99822,-1.8351 2.60992,-4.60814 2.60992,-11.70386 0,-4.44502 -0.16312,-6.15778 -0.77482,-8.07444 -0.8156,-2.52836 -2.60992,-4.078 -5.3014,-4.60814 -2.32446,-0.48936 -3.2624,-0.53014 -10.195,-0.53014 h -19.61518 z m 8.156,-6.9326 v -13.4574 h 11.45918 c 5.05672,0 6.15778,0.16312 7.01416,1.14184 0.8156,0.89716 1.10106,2.40602 1.10106,5.74998 0,6.15778 -0.53014,6.56558 -8.03366,6.56558 z"
         id="path860" /><path
         d="m 240.9563,226.66887 v 27.20026 h 30.25876 v -6.5248 H 249.1123 v -4.32268 h 20.83858 v -5.99466 H 249.1123 v -3.95566 h 21.93964 v -6.40246 z"
         id="path862" /><path
         d="m 273.82495,253.86913 h 8.27834 v -6.89182 h 11.70386 c 3.42552,0 4.03722,0.0816 4.60814,0.73404 0.65248,0.69326 0.8156,1.67198 0.8156,4.73048 v 1.4273 h 8.156 v -2.52836 c 0.16312,-6.28012 -0.57092,-7.50352 -4.77126,-7.99288 1.6312,-0.24468 2.40602,-0.53014 3.18084,-1.14184 1.46808,-1.10106 1.87588,-2.6507 1.87588,-6.68792 0,-4.73048 -0.6117,-6.5248 -2.69148,-7.78898 -1.75354,-1.06028 -1.75354,-1.06028 -11.13294,-1.06028 h -20.02298 z m 8.27834,-13.70208 v -6.68792 h 11.66308 c 3.75176,0.0408 3.8741,0.0408 4.44502,0.28546 0.85638,0.36702 1.18262,1.14184 1.18262,2.97694 0,1.71276 -0.24468,2.52836 -0.89716,2.93616 -0.57092,0.4078 -0.57092,0.4078 -4.73048,0.48936 z"
         id="path864" /></g><path
       id="path221-6"
       style="fill:#cccccc;fill-opacity:1;stroke:none;stroke-width:0.159192px;stroke-linecap:butt;stroke-linejoin:miter;stroke-opacity:1"
       d="m 37.454084,4.969992 -0.500585,0.5005841 h 0.500585 z m 0,0.8612529 h -0.861253 l -0.368132,0.3681313 h 1.229385 z m 0,0.7278675 h -1.589122 l -0.369063,0.3690645 h 1.958185 z m 0,0.7288006 h -2.317922 l -0.368131,0.3681314 h 2.686053 z m 0,0.5018279 c -30.1598692,-6.5873005 -15.079935,-3.2936503 0,0 z m -0.223242,0.2269729 h -2.82348 L 34.03923,8.3848451 h 2.829388 z M 36.515099,8.7442703 H 33.679806 L 33.31043,9.1136445 h 2.841203 z m -0.716984,0.7288008 h -2.84711 L 32.582874,9.8412016 H 35.43589 Z M 35.081129,10.20187 h -2.858925 l -0.368131,0.368131 h 2.864833 z m -0.716053,0.727867 h -2.87105 l -0.369064,0.369065 h 2.877269 z m -0.716674,0.728801 h -5.314273 l 0.408862,0.368132 h 4.543187 z m -0.716985,0.728801 h -3.787649 l 0.288536,0.259619 -0.103537,0.108512 h 3.263435 l -0.01119,-0.01182 z m 0.0035,0.727556 h -3.949015 l -0.352275,0.369375 h 4.653253 z m 0.694599,0.728801 H 28.29068 l -0.351341,0.368131 h 6.040897 z m 0.694288,0.7288 H 31.19873 l 0.431249,0.368131 h 3.044546 z m 2.460635,0.727868 h -4.73285 l 0.431248,0.368132 h 4.301602 z m 0,0.7288 H 32.90564 l 0.431249,0.368132 h 3.4475 z m 0,0.728801 H 33.75946 l 0.406686,0.346988 h 2.618272 z m -8.488473,0 h -7.224897 c 0.253255,0.152548 0.545476,0.253653 0.900429,0.333619 h 5.962856 z m -7.665162,-0.360669 h 8.056291 l 0.399224,-0.368132 h -8.734101 c 0.0892,0.139458 0.181186,0.262091 0.278586,0.368132 z m -0.482551,-0.7288 h 9.328895 l 0.399223,-0.368132 h -9.896015 c 0.0045,0.01402 0.0089,0.02801 0.01399,0.04197 0.05109,0.117315 0.102381,0.224342 0.153905,0.326157 z m -0.224177,-0.727869 h 2.433895 l 0.358181,-0.368131 h -2.744505 c -0.03163,0.12427 -0.04823,0.247143 -0.04757,0.368131 z m 0.177533,-0.7288 h 2.965571 l 0.358181,-0.368131 h -3.122275 c -0.07751,0.123799 -0.145653,0.246657 -0.201477,0.368131 z m 0.450215,-0.727557 h 3.223014 l 0.359426,-0.369375 h -3.28551 c -0.10552,0.123885 -0.204808,0.24708 -0.29693,0.369375 z m 0.616868,-0.7288 h 3.315358 l 0.358181,-0.368131 h -3.327167 c -0.118583,0.123215 -0.233946,0.245863 -0.346366,0.368131 z m 0.697087,-0.7288 h 3.327484 l 0.358182,-0.368132 h -3.325619 c -0.119754,0.122941 -0.239932,0.24557 -0.360047,0.368132 z m 0.706102,-0.727868 h 3.329661 l 0.359115,-0.369065 h -3.346445 c -0.01992,0.02149 -0.03901,0.04139 -0.05908,0.06311 -0.09201,0.101934 -0.186808,0.203914 -0.283251,0.305947 z m 0.679675,-0.728801 h 3.358888 l 0.240031,-0.24656 0.273922,0.24656 h 3.264678 c -0.09772,-0.127663 -0.193596,-0.250258 -0.287907,-0.368131 h -6.49391 c -0.116061,0.118255 -0.234441,0.240448 -0.355695,0.368131 z M 23.968852,9.8412016 H 29.80392 C 29.694754,9.7123306 29.58701,9.5879929 29.481791,9.4730711 H 24.35749 c -0.126236,0.1156485 -0.256099,0.2388668 -0.388653,0.3681305 z m 0.796893,-0.7275571 h 4.369693 C 28.996381,8.9774552 28.860455,8.8546143 28.726506,8.7442703 H 25.236721 C 25.084082,8.8546094 24.92726,8.9782594 24.765675,9.1136445 Z m 1.03568,-0.7287994 h 2.423013 c -0.801861,-0.4812122 -1.554775,-0.4731325 -2.423013,0 z m 4.858462,2.5448919 h -3.135694 l 0.410106,0.369065 h 2.994486 c -0.09113,-0.126527 -0.180845,-0.250035 -0.268947,-0.369065 z m 0.268948,0.369065 c 0.0277,0.03845 0.05441,0.07465 0.08239,0.113797 l 0.113797,-0.113797 z m -3.333702,3.273694 -0.351342,0.368131 h 3.02247 l 0.399223,-0.368131 z m 8.997763,-8.7412511 c -29.5856969,-5.28163649 -14.792849,-2.6408183 0,0 z"
       sodipodi:nodetypes="ccccccccccccccccccccccccccccccccccccccccccccccccccccccccccccccccccccccccccccccccccccccccccccccccccccccccccccccccccccccccccccccccccccccccccccccccccccccccccccccccccccccccccccccccccc" /><path
       id="path221-6-2"
       style="fill:#cccccc;fill-opacity:1;stroke:none;stroke-width:0.159192px;stroke-linecap:butt;stroke-linejoin:miter;stroke-opacity:1"
       d="m 149.51227,4.9699908 -0.50058,0.5005846 h 0.50058 z m 0,0.8612538 h -0.86125 l -0.36813,0.3681309 h 1.22938 z m 0,0.7278666 h -1.58912 l -0.36907,0.3690653 h 1.95819 z m 0,0.728801 h -2.31792 l -0.36813,0.3681319 h 2.68605 z m 0,0.5018283 c -30.15987,-6.5873006 -15.07993,-3.2936508 0,0 z m -0.22324,0.2269728 h -2.82348 l -0.36813,0.3681309 h 2.82938 z m -0.71575,0.7275564 h -2.83529 l -0.36938,0.3693745 h 2.84121 z m -0.71698,0.7288011 h -2.84711 l -0.36813,0.3681298 h 2.85302 z m -0.71699,0.7287992 h -2.85892 l -0.36813,0.368131 h 2.86483 z m -0.71605,0.727867 h -2.87104 l -0.36907,0.369065 h 2.87727 z m -0.71667,0.728801 h -5.31428 l 0.40887,0.368132 h 4.54319 z m -0.71699,0.728801 h -3.78764 l 0.28853,0.259619 -0.10353,0.108512 h 3.26343 l -0.0112,-0.01182 z m 0.004,0.727556 h -3.94902 l -0.35227,0.369375 h 4.65325 z m 0.6946,0.728801 h -5.33883 l -0.35135,0.368131 h 6.0409 z m 0.69429,0.7288 h -3.12507 l 0.43125,0.368131 h 3.04454 z m 2.46063,0.727868 h -4.73285 l 0.43125,0.368132 h 4.3016 z m 0,0.7288 h -3.8788 l 0.43125,0.368132 h 3.4475 z m 0,0.728801 h -3.02495 l 0.40668,0.346988 h 2.61827 z m -8.48847,0 h -7.2249 c 0.25326,0.152548 0.54548,0.253653 0.90044,0.333619 h 5.96285 z m -7.66517,-0.360669 h 8.05629 l 0.39924,-0.368132 h -8.73411 c 0.0892,0.139458 0.18119,0.262091 0.27858,0.368132 z m -0.48254,-0.7288 h 9.3289 l 0.39922,-0.368132 h -9.89602 c 0.004,0.01402 0.009,0.02801 0.014,0.04197 0.0511,0.117315 0.10238,0.224342 0.15391,0.326157 z m -0.22418,-0.727869 h 2.43389 l 0.35819,-0.368131 h -2.74451 c -0.0316,0.12427 -0.0482,0.247143 -0.0475,0.368131 z m 0.17754,-0.7288 h 2.96556 l 0.35819,-0.368131 h -3.12228 c -0.0775,0.123799 -0.14566,0.246657 -0.20147,0.368131 z m 0.4502,-0.727557 h 3.22302 l 0.35943,-0.369375 h -3.28551 c -0.10552,0.123885 -0.20481,0.24708 -0.29694,0.369375 z m 0.61687,-0.7288 h 3.31536 l 0.35819,-0.368131 h -3.32717 c -0.11858,0.123215 -0.23395,0.245863 -0.34637,0.368131 z m 0.69709,-0.7288 h 3.32748 l 0.35819,-0.368132 h -3.32562 c -0.11975,0.122941 -0.23993,0.24557 -0.36005,0.368132 z m 0.7061,-0.727868 h 3.32967 l 0.35911,-0.369065 h -3.34644 c -0.0199,0.02149 -0.039,0.04139 -0.0591,0.06311 -0.0921,0.101934 -0.18681,0.203914 -0.28326,0.305947 z m 0.67968,-0.728801 h 3.35889 l 0.24003,-0.24656 0.27392,0.24656 h 3.26468 c -0.0977,-0.127663 -0.1936,-0.250258 -0.28791,-0.368131 h -6.49391 c -0.11606,0.118255 -0.23444,0.240448 -0.35569,0.368131 z m 0.7173,-0.7288004 h 5.83507 c -0.10915,-0.128871 -0.2169,-0.253208 -0.32211,-0.3681298 h -5.12431 c -0.12623,0.1156485 -0.2561,0.2388661 -0.38865,0.3681298 z m 0.79689,-0.7275564 h 4.36969 c -0.13903,-0.1361896 -0.27496,-0.2590305 -0.40891,-0.3693745 h -3.48978 c -0.15264,0.1103391 -0.30947,0.2339891 -0.47105,0.3693745 z m 1.03568,-0.7288 h 2.42301 c -0.80186,-0.4812117 -1.55477,-0.4731327 -2.42301,0 z m 4.85846,2.5448928 h -3.13569 l 0.4101,0.369065 h 2.99449 c -0.0912,-0.126527 -0.18085,-0.250035 -0.26894,-0.369065 z m 0.26895,0.369065 c 0.0277,0.03845 0.0544,0.07465 0.0824,0.113797 l 0.11379,-0.113797 z m -3.3337,3.273694 -0.35135,0.368131 h 3.02247 l 0.39923,-0.368131 z m 8.99776,-8.7412514 c -29.5857,-5.28163668 -14.79285,-2.6408189 0,0 z"
       sodipodi:nodetypes="ccccccccccccccccccccccccccccccccccccccccccccccccccccccccccccccccccccccccccccccccccccccccccccccccccccccccccccccccccccccccccccccccccccccccccccccccccccccccccccccccccccccccccccccccccc" /><g
       id="g609"
       transform="matrix(0.29197265,-1.0896568,1.0896568,0.29197265,49.19841,104.43618)"><g
         id="g598"><g
           id="g589"><path
             style="fill:#ffcc00;stroke-width:0.142047;stroke-linecap:round;stroke-linejoin:round;stroke-dasharray:0.142047, 0.426141;paint-order:fill markers stroke"
             id="path370"
             transform="rotate(30)"
             sodipodi:type="arc"
             sodipodi:cx="82.585915"
             sodipodi:cy="-33.581459"
             sodipodi:rx="7.3737068"
             sodipodi:ry="7.7333612"
             sodipodi:start="0"
             sodipodi:end="5.2359878"
             sodipodi:open="true"
             sodipodi:arc-type="arc"
             d="m 89.959621,-33.581459 a 7.3737068,7.7333612 0 0 1 -5.465251,7.469853 7.3737068,7.7333612 0 0 1 -8.294273,-3.603173 7.3737068,7.7333612 0 0 1 1.17182,-9.334992 7.3737068,7.7333612 0 0 1 8.900851,-1.228975" /><g
             id="g581"><g
               id="g1274"
               transform="matrix(0.46494334,0.26843516,-0.26843516,0.46494334,101.47174,-59.616271)"><ellipse
                 style="fill:#000000;stroke-width:0.264583;stroke-linecap:round;stroke-linejoin:round;stroke-dasharray:0.264583, 0.79375;paint-order:fill markers stroke"
                 id="path528"
                 cx="42.400101"
                 cy="122.67386"
                 rx="1.4533134"
                 ry="3.4345114" /><ellipse
                 style="fill:#000000;stroke-width:0.264583;stroke-linecap:round;stroke-linejoin:round;stroke-dasharray:0.264583, 0.79375;paint-order:fill markers stroke"
                 id="path528-3"
                 cx="48.932739"
                 cy="122.81145"
                 rx="1.4533134"
                 ry="3.4345114" /></g><path
               style="fill:none;stroke:#000000;stroke-width:0.518079;stroke-linecap:round;stroke-linejoin:round;stroke-dasharray:none;paint-order:fill markers stroke"
               id="path1278"
               sodipodi:type="arc"
               sodipodi:cx="82.585915"
               sodipodi:cy="-34.068039"
               sodipodi:rx="5.5634341"
               sodipodi:ry="5.5634341"
               sodipodi:start="0"
               sodipodi:end="3.1415927"
               sodipodi:open="true"
               sodipodi:arc-type="arc"
               d="m 88.149349,-34.068039 a 5.5634341,5.5634341 0 0 1 -2.781717,4.818075 5.5634341,5.5634341 0 0 1 -5.563435,0 5.5634341,5.5634341 0 0 1 -2.781717,-4.818075"
               transform="rotate(30)" /></g></g></g><path
         style="fill:#f9f9f9;stroke:none;stroke-width:0.402189;stroke-linecap:round;stroke-linejoin:round;paint-order:fill markers stroke"
         id="path362"
         sodipodi:type="arc"
         sodipodi:cx="10.491328"
         sodipodi:cy="-94.98893"
         sodipodi:rx="3.8021371"
         sodipodi:ry="0.64600974"
         sodipodi:start="0"
         sodipodi:end="3.1415927"
         sodipodi:open="true"
         sodipodi:arc-type="arc"
         d="m 14.293465,-94.98893 a 3.8021371,0.64600974 0 0 1 -1.901068,0.559461 3.8021371,0.64600974 0 0 1 -3.8021374,0 3.8021371,0.64600974 0 0 1 -1.9010685,-0.559461"
         transform="matrix(-0.01904811,0.99981857,-0.99985126,-0.017247,0,0)" /></g></g></svg>
